<?xml version="1.0" encoding="utf-8"?>
<!-- Generator: Adobe Illustrator 23.0.3, SVG Export Plug-In . SVG Version: 6.00 Build 0)  -->
<svg version="1.1" id="Layer_1" xmlns="http://www.w3.org/2000/svg" xmlns:xlink="http://www.w3.org/1999/xlink" x="0px" y="0px"
	 viewBox="0 0 817 789" style="enable-background:new 0 0 817 789;" xml:space="preserve">
<style type="text/css">
	.st0{opacity:0.2;fill:#7BD4FB;}
	.st1{fill:#19258A;}
	.st2{fill:url(#SVGID_1_);}
	.st3{fill:url(#SVGID_2_);}
	.st4{fill:url(#SVGID_3_);}
	.st5{fill:url(#SVGID_4_);}
	.st6{opacity:0.3;fill:#19258A;}
	.st7{fill:url(#SVGID_5_);}
	.st8{fill:url(#SVGID_6_);}
	.st9{fill:url(#SVGID_7_);}
	.st10{opacity:0.1;fill:#FFFFFF;}
	.st11{fill:url(#SVGID_8_);}
	.st12{fill:url(#SVGID_9_);}
	.st13{fill:url(#SVGID_10_);}
	.st14{fill:url(#SVGID_11_);}
	.st15{opacity:0.3;fill:#65B0F6;}
	.st16{fill:#65B0F6;}
	.st17{opacity:0.5;fill:#7BD4FB;}
	.st18{opacity:0.4;fill:#7BD4FB;}
	.st19{opacity:0.7;fill:#7BD4FB;}
</style>
<path class="st0" d="M177.5,104.4c-14,6.1-27.5,12.7-40.2,20.1c-37.4,21.6-65.1,46.6-83.2,73.3v102.8c18.1-26.7,45.9-51.7,83.2-73.3
	c12.7-7.4,26.2-14,40.2-20.1V104.4z"/>
<path class="st0" d="M251.8,182.3c47.2-11.8,97.7-17.8,148.3-17.8c16,0,32,0.6,48,1.8V63.5c-15.9-1.2-31.9-1.8-48-1.8
	c-50.6,0-101.1,6-148.3,17.8V182.3z"/>
<path class="st0" d="M751.9,206.8c-17.8-30.1-47.4-58.3-88.9-82.3c-24.2-14-51-25.6-79.4-34.9v102.8c28.4,9.3,55.2,20.9,79.4,34.9
	c41.5,24,71.2,52.2,88.9,82.3V206.8z"/>
<path class="st0" d="M127.7,359.1c9.5-7.3,20.1-14.4,31.6-21c40.5-23.4,88.6-39.6,139.7-48.7v-94.2c-51.1,9.1-99.2,25.4-139.7,48.7
	c-11.5,6.7-22.1,13.7-31.6,21V359.1z"/>
<path class="st0" d="M499.7,289.1c51.7,9.1,100.4,25.4,141.3,49c9.6,5.6,18.6,11.4,26.8,17.4v-94.2c-8.2-6-17.2-11.9-26.8-17.4
	c-40.9-23.6-89.6-39.9-141.3-49V289.1z"/>
<path class="st0" d="M204,433.1c40.1-20.1,87.3-33.1,136.5-38.9v-82.7c-49.2,5.7-96.4,18.7-136.5,38.9V433.1z"/>
<path class="st0" d="M461.8,394.5c54.9,6.7,107.3,22.2,149.9,46.9c0.2,0.1,0.4,0.3,0.7,0.4v-82.7c-0.2-0.1-0.4-0.3-0.7-0.4
	c-42.7-24.6-95-40.2-149.9-46.9V394.5z"/>
<g>
	
		<rect x="151.2" y="358.7" transform="matrix(0.9525 -0.3046 0.3046 0.9525 -102.2687 84.0015)" class="st1" width="133.8" height="22.2"/>
	<g>
		<radialGradient id="SVGID_1_" cx="295.059" cy="328.6726" r="88.2955" gradientUnits="userSpaceOnUse">
			<stop  offset="0" style="stop-color:#80BCFC"/>
			<stop  offset="1" style="stop-color:#2F3DA4"/>
		</radialGradient>
		<path class="st2" d="M347.9,344c0,23.1-18.7,41.8-41.8,41.8c-23.1,0-41.8-18.7-41.8-41.8c0-23.1,18.7-41.8,41.8-41.8
			C329.2,302.2,347.9,320.9,347.9,344z"/>
		<linearGradient id="SVGID_2_" gradientUnits="userSpaceOnUse" x1="277.3103" y1="417.7325" x2="312.0997" y2="328.6726">
			<stop  offset="0" style="stop-color:#FFFFFF"/>
			<stop  offset="0.1015" style="stop-color:#D0D0D0"/>
			<stop  offset="0.2339" style="stop-color:#999999"/>
			<stop  offset="0.3677" style="stop-color:#6B6B6B"/>
			<stop  offset="0.5" style="stop-color:#444444"/>
			<stop  offset="0.6303" style="stop-color:#262626"/>
			<stop  offset="0.7583" style="stop-color:#111111"/>
			<stop  offset="0.8828" style="stop-color:#040404"/>
			<stop  offset="1" style="stop-color:#000000"/>
		</linearGradient>
		<path class="st3" d="M347.9,344c0,23.1-18.7,41.8-41.8,41.8c-23.1,0-41.8-18.7-41.8-41.8c0-23.1,18.7-41.8,41.8-41.8
			C329.2,302.2,347.9,320.9,347.9,344z"/>
	</g>
	<radialGradient id="SVGID_3_" cx="429.4428" cy="397.8033" r="257.1039" gradientUnits="userSpaceOnUse">
		<stop  offset="0" style="stop-color:#80BCFC"/>
		<stop  offset="1" style="stop-color:#2F3DA4"/>
	</radialGradient>
	<path class="st4" d="M423.4,631.4c0,0,16.7-0.4,33-8.8c16.3-8.4,36.9-35.4,53.2-61.1c45.8-72.2,48.6-136.3,32.5-179.5
		c-16.1-43.2-60.3-66.7-118.7-66.7c-58.4,0-102.6,23.5-118.7,66.7c-16.1,43.2-13.3,107.2,32.5,179.5c16.3,25.7,36.8,52.7,53.2,61.1
		C406.7,631,423.4,631.4,423.4,631.4z"/>
	<linearGradient id="SVGID_4_" gradientUnits="userSpaceOnUse" x1="338.6583" y1="683.2217" x2="435.6619" y2="401.6256">
		<stop  offset="0" style="stop-color:#FFFFFF"/>
		<stop  offset="0.15" style="stop-color:#DFDFDF"/>
		<stop  offset="0.4806" style="stop-color:#8C8C8C"/>
		<stop  offset="0.9651" style="stop-color:#0A0A0A"/>
		<stop  offset="1" style="stop-color:#000000"/>
	</linearGradient>
	<path class="st5" d="M423.4,631.4c0,0,16.7-0.4,33-8.8c16.3-8.4,36.9-35.4,53.2-61.1c45.8-72.2,48.6-136.3,32.5-179.5
		c-16.1-43.2-60.3-66.7-118.7-66.7c-58.4,0-102.6,23.5-118.7,66.7c-16.1,43.2-13.3,107.2,32.5,179.5c16.3,25.7,36.8,52.7,53.2,61.1
		C406.7,631,423.4,631.4,423.4,631.4z"/>
	<path class="st6" d="M524.4,352.8c-22-24.4-57.6-37.5-101-37.5c-39.6,0-72.6,10.8-94.8,31.3c25.1,27.3,61,44.4,101,44.4
		C466.4,391,499.8,376.4,524.4,352.8z"/>
	<g>
		<radialGradient id="SVGID_5_" cx="393.2241" cy="155.1973" r="289.9282" gradientUnits="userSpaceOnUse">
			<stop  offset="0" style="stop-color:#80BCFC"/>
			<stop  offset="1" style="stop-color:#2F3DA4"/>
		</radialGradient>
		<path class="st7" d="M566.7,205.4c0,75.7-61.4,137.1-137.1,137.1s-137.1-61.4-137.1-137.1c0-75.7,61.4-137.1,137.1-137.1
			S566.7,129.7,566.7,205.4z"/>
		<linearGradient id="SVGID_6_" gradientUnits="userSpaceOnUse" x1="334.9395" y1="447.6493" x2="429.2555" y2="206.2033">
			<stop  offset="0" style="stop-color:#FFFFFF"/>
			<stop  offset="1" style="stop-color:#000000"/>
		</linearGradient>
		<path class="st8" d="M566.7,205.4c0,75.7-61.4,137.1-137.1,137.1s-137.1-61.4-137.1-137.1c0-75.7,61.4-137.1,137.1-137.1
			S566.7,129.7,566.7,205.4z"/>
		<path class="st1" d="M499.5,257.5c-2.5,38.5-37.8,49.6-37.8,49.6c-46.1,4.4-95-3.7-130.5-24.2c-10.9-6.3-19.7-13.3-26.5-20.7
			c-7.9-17.3-12.3-36.5-12.3-56.8c0-15.5,2.6-30.3,7.3-44.2c7.3,9.7,17.8,18.8,31.5,26.7c35.5,20.5,84.5,28.6,130.5,24.2
			C461.8,212.2,502.7,209.1,499.5,257.5z"/>
		<linearGradient id="SVGID_7_" gradientUnits="userSpaceOnUse" x1="382.3965" y1="296.4788" x2="402.8959" y2="190.4053">
			<stop  offset="0" style="stop-color:#FFFFFF"/>
			<stop  offset="1" style="stop-color:#19258A"/>
		</linearGradient>
		<path class="st9" d="M499.5,257.5c-2.5,38.5-37.8,49.6-37.8,49.6c-46.1,4.4-95-3.7-130.5-24.2c-10.9-6.3-19.7-13.3-26.5-20.7
			c-7.9-17.3-12.3-36.5-12.3-56.8c0-15.5,2.6-30.3,7.3-44.2c7.3,9.7,17.8,18.8,31.5,26.7c35.5,20.5,84.5,28.6,130.5,24.2
			C461.8,212.2,502.7,209.1,499.5,257.5z"/>
		<path class="st10" d="M331.3,188c-13.7-7.9-24.2-17-31.5-26.7c-4.7,13.9-7.3,28.7-7.3,44.2c0,20.3,4.4,39.5,12.3,56.8
			c6.8,7.4,15.6,14.4,26.5,20.7c4.8,2.8,9.8,5.3,15,7.6c1-22.5,5.9-57.1,23.6-86.4C355.9,200.1,342.9,194.7,331.3,188z"/>
	</g>
	<radialGradient id="SVGID_8_" cx="150.0551" cy="373.6482" r="195.7994" gradientUnits="userSpaceOnUse">
		<stop  offset="0" style="stop-color:#69A1FB"/>
		<stop  offset="0.5053" style="stop-color:#4367C6"/>
		<stop  offset="1" style="stop-color:#19258A"/>
	</radialGradient>
	<path class="st11" d="M183.3,411.6c-20.1,11.6-98.5,38-118.6,26.3c-20.1-11.6,25.5-56.8,45.6-68.5c20.2-11.6,52.8-11.6,73,0
		C203.5,381.1,203.5,399.9,183.3,411.6z"/>
	<path class="st1" d="M542.2,391.6c0,21-14.7,46.5-32.9,57c-18.2,10.5-32.9,2-32.9-19c0-21,14.7-46.5,32.9-57
		C527.5,362.1,542.2,370.6,542.2,391.6z"/>
	
		<rect x="558.7" y="450" transform="matrix(0.9226 -0.3856 0.3856 0.9226 -151.796 259.0508)" class="st1" width="22.2" height="115.8"/>
	<radialGradient id="SVGID_9_" cx="601.7693" cy="563.7863" r="266.2326" gradientUnits="userSpaceOnUse">
		<stop  offset="0" style="stop-color:#69A1FB"/>
		<stop  offset="1" style="stop-color:#19258A"/>
	</radialGradient>
	<path class="st12" d="M620.1,560.5c0,23.3-16.3,104.3-36.5,115.9c-20.2,11.6-36.5-50.5-36.5-73.8c0-23.3,16.3-51.6,36.5-63.2
		C603.8,527.9,620.1,537.3,620.1,560.5z"/>
	<g>
		<radialGradient id="SVGID_10_" cx="527.2225" cy="414.0082" r="88.2892" gradientUnits="userSpaceOnUse">
			<stop  offset="0" style="stop-color:#80BCFC"/>
			<stop  offset="1" style="stop-color:#2F3DA4"/>
		</radialGradient>
		<path class="st13" d="M580,429.3c0,23.1-18.7,41.8-41.8,41.8c-23.1,0-41.8-18.7-41.8-41.8c0-23.1,18.7-41.8,41.8-41.8
			C561.3,387.5,580,406.2,580,429.3z"/>
		<linearGradient id="SVGID_11_" gradientUnits="userSpaceOnUse" x1="509.4726" y1="503.0665" x2="544.2618" y2="414.0072">
			<stop  offset="0" style="stop-color:#FFFFFF"/>
			<stop  offset="0.1015" style="stop-color:#D0D0D0"/>
			<stop  offset="0.2339" style="stop-color:#999999"/>
			<stop  offset="0.3677" style="stop-color:#6B6B6B"/>
			<stop  offset="0.5" style="stop-color:#444444"/>
			<stop  offset="0.6303" style="stop-color:#262626"/>
			<stop  offset="0.7583" style="stop-color:#111111"/>
			<stop  offset="0.8828" style="stop-color:#040404"/>
			<stop  offset="1" style="stop-color:#000000"/>
		</linearGradient>
		<path class="st14" d="M580,429.3c0,23.1-18.7,41.8-41.8,41.8c-23.1,0-41.8-18.7-41.8-41.8c0-23.1,18.7-41.8,41.8-41.8
			C561.3,387.5,580,406.2,580,429.3z"/>
	</g>
	<g>
		<path class="st15" d="M400.1,264.1c0,10-7,14.1-15.7,9.1c-8.7-5-15.7-17.2-15.7-27.2c0-10,7-14.1,15.7-9.1
			C393.1,241.9,400.1,254.1,400.1,264.1z"/>
		<path class="st15" d="M396.6,262.1c0,7.8-5.5,10.9-12.2,7c-6.7-3.9-12.2-13.4-12.2-21.1c0-7.8,5.5-10.9,12.2-7
			C391.2,244.8,396.6,254.3,396.6,262.1z"/>
		<path class="st15" d="M395,261.1c0,6.8-4.7,9.5-10.6,6.1c-5.9-3.4-10.6-11.6-10.6-18.3c0-6.8,4.7-9.5,10.6-6.1
			C390.3,246.2,395,254.4,395,261.1z"/>
		<path class="st16" d="M393.5,260.2c0,5.7-4,8.1-9,5.2c-5-2.9-9-9.9-9-15.6c0-5.7,4-8.1,9-5.2C389.4,247.5,393.5,254.5,393.5,260.2
			z"/>
		<path class="st16" d="M391,258.8c0,4.2-2.9,5.9-6.6,3.8c-3.6-2.1-6.6-7.2-6.6-11.4c0-4.2,2.9-5.9,6.6-3.8
			C388.1,249.5,391,254.6,391,258.8z"/>
		<path class="st16" d="M389.1,257.7c0,3-2.1,4.2-4.7,2.7c-2.6-1.5-4.7-5.1-4.7-8.1c0-3,2.1-4.2,4.7-2.7
			C387,251.1,389.1,254.7,389.1,257.7z"/>
	</g>
	<g>
		<path class="st15" d="M337.5,237.3c0,10-7,14.1-15.7,9.1c-8.7-5-15.7-17.2-15.7-27.2c0-10,7-14.1,15.7-9.1
			C330.5,215.1,337.5,227.3,337.5,237.3z"/>
		<path class="st15" d="M334,235.3c0,7.8-5.5,10.9-12.2,7c-6.7-3.9-12.2-13.4-12.2-21.1c0-7.8,5.5-10.9,12.2-7
			C328.5,218,334,227.5,334,235.3z"/>
		<path class="st15" d="M332.4,234.3c0,6.8-4.7,9.5-10.6,6.1c-5.9-3.4-10.6-11.6-10.6-18.4c0-6.8,4.7-9.5,10.6-6.1
			C327.7,219.4,332.4,227.6,332.4,234.3z"/>
		<path class="st16" d="M330.8,233.4c0,5.7-4,8.1-9,5.2c-5-2.9-9-9.9-9-15.6c0-5.8,4-8.1,9-5.2C326.8,220.7,330.8,227.7,330.8,233.4
			z"/>
		<path class="st16" d="M328.4,232c0,4.2-2.9,5.9-6.6,3.8c-3.6-2.1-6.6-7.2-6.6-11.4c0-4.2,2.9-5.9,6.6-3.8
			C325.4,222.7,328.4,227.8,328.4,232z"/>
		<path class="st16" d="M326.5,230.9c0,3-2.1,4.2-4.7,2.7c-2.6-1.5-4.7-5.1-4.7-8.1c0-3,2.1-4.2,4.7-2.7
			C324.4,224.3,326.5,227.9,326.5,230.9z"/>
	</g>
</g>
<path class="st17" d="M213.5,462c-27.3-9.1-53-20.4-76.3-33.9c-33.6-19.4-59.5-41.6-77.5-65.4v102.8c18,23.7,43.9,45.9,77.5,65.4
	c23.3,13.5,49,24.8,76.3,33.9V462z"/>
<path class="st17" d="M326.5,589.5c24.3,2.8,49,4.3,73.6,4.3c50.1,0,100.2-5.9,147-17.5V473.5c-46.8,11.6-96.9,17.5-147,17.5
	c-24.7,0-49.3-1.4-73.6-4.3V589.5z"/>
<path class="st17" d="M756.4,337.7c-17,33.1-48.2,64.3-93.4,90.4c-9,5.2-18.3,10-27.9,14.6v102.8c9.6-4.5,18.9-9.4,27.9-14.6
	c45.2-26.1,76.4-57.3,93.4-90.4V337.7z"/>
<path class="st18" d="M158.9,616c0.1,0.1,0.2,0.1,0.3,0.2c55.5,32,125.3,50.7,197.6,56V578c-72.2-5.3-142.1-23.9-197.6-56
	c-0.1-0.1-0.2-0.1-0.3-0.2V616z"/>
<path class="st17" d="M488.1,667.1c56-8.6,109-25.5,152.9-50.9c11.5-6.7,22.1-13.7,31.6-21V501c-9.5,7.3-20.1,14.4-31.6,21
	c-43.9,25.4-96.9,42.3-152.9,50.9V667.1z"/>
<path class="st0" d="M285.3,723.1c36.7,8.8,75.8,13.2,114.9,13.2c18.8,0,37.6-1,56.1-3.1v-82.7c-18.5,2-37.3,3.1-56.1,3.1
	c-39.1,0-78.2-4.4-114.9-13.2V723.1z"/>
<path class="st19" d="M690,523.7c-12.8,29.1-38.9,56.6-78.3,79.3c-21.1,12.2-44.6,22.1-69.5,29.9v82.7c25-7.8,48.4-17.7,69.5-29.9
	c39.4-22.7,65.5-50.3,78.3-79.3V523.7z"/>
<path class="st19" d="M184,600.3c-55.4-33.4-83.1-76.4-83.1-119.4v82.7c0,43,27.8,86.1,83.1,119.4V600.3z"/>
</svg>
