<svg height="425pt" viewBox="0 -28 425.605 425" width="425pt" xmlns="http://www.w3.org/2000/svg" xmlns:xlink="http://www.w3.org/1999/xlink"><linearGradient id="lg1"><stop offset="0" stop-color="#00efd1"/><stop offset="1" stop-color="#00acea"/></linearGradient><linearGradient id="linear0" gradientUnits="userSpaceOnUse" x1="212.8" x2="212.8" xlink:href="#lg1" y1="-28.5325" y2="385.6825"/><linearGradient id="linear1" gradientUnits="userSpaceOnUse" x1="183.88" x2="183.88" xlink:href="#lg1" y1="-28.5325" y2="385.6825"/><path d="m372.898438 92.496094c-9.65625-7.636719-20.089844-14.242188-31.121094-19.710938-8.371094-11.21875-18.179688-21.285156-29.175782-29.945312-34.53125-27.429688-80.246093-42.539063-128.722656-42.539063-48.476562 0-94.1875 15.109375-128.722656 42.539063-35.570312 28.253906-55.15625 66.136718-55.15625 106.667968 0 40.5 19.566406 78.363282 55.101562 106.617188l-2.730468 69.800781c-.078125 2.050781.894531 4 2.582031 5.167969s3.855469 1.390625 5.746094.589844l72.542969-30.859375c32.128906 23.207031 73.441406 35.761719 116.738281 35.761719h.15625c12 .0625 23.984375-.867188 35.832031-2.78125l81.367188 34.492187c.734374.328125 1.53125.503906 2.335937.523437 1.628906.015626 3.195313-.640624 4.332031-1.8125 1.132813-1.171874 1.734375-2.757812 1.667969-4.386718l-2.601563-66.414063c33.878907-26.984375 52.535157-63.125 52.535157-101.789062 0-38.734375-18.71875-74.925781-52.707031-101.921875zm-308.035157 156.019531-.171875-.132813c-.695312-.53125-1.386718-1.0625-2.070312-1.605468-32.644532-25.933594-50.621094-60.480469-50.621094-97.269532 0-36.792968 17.980469-71.339843 50.625-97.273437 32.414062-25.75 75.480469-39.933594 121.253906-39.933594 45.777344 0 88.839844 14.183594 121.261719 39.933594 32.644531 25.933594 50.625 60.476563 50.625 97.273437 0 36.792969-17.980469 71.273438-50.625 97.207032-32.421875 25.75-75.488281 39.871094-121.265625 39.871094h-.144531c-12.5.019531-24.980469-1.046876-37.300781-3.1875-1.140626-.191407-2.3125-.046876-3.371094.414062l-78.332032 33.125 2.480469-63.433594c.078125-1.945312-.796875-3.804687-2.34375-4.988281zm300.574219 38.441406c-.625.5-1.257812.980469-1.890625 1.46875l-.246094.1875c-1.546875 1.183594-2.417969 3.046875-2.339843 4.992188l2.347656 60.058593-74.285156-31.398437c-1.046876-.511719-2.21875-.710937-3.375-.578125-11.734376 1.992188-23.617188 2.960938-35.515626 2.898438h-.148437c-37.972656 0-74.246094-10.214844-103.359375-29.179688 12.261719 2.066406 24.667969 3.132812 37.101562 3.179688h.152344c48.472656 0 94.1875-15.042969 128.722656-42.476563 35.574219-28.253906 55.164063-66.105469 55.164063-106.632813-.015625-19.195312-4.449219-38.132812-12.953125-55.339843 3.671875 2.453125 7.214844 5.035156 10.625 7.746093 31.058594 24.675782 48.167969 57.539063 48.167969 92.539063 0 34.996094-17.105469 67.859375-48.167969 92.535156zm0 0" fill="url(#linear0)"/><path d="m183.878906 195.199219c-9.890625-.011719-17.910156-8.027344-17.917968-17.921875 0-3.3125-2.6875-6-6-6-3.316407 0-6 2.6875-6 6 .015624 14.175781 9.964843 26.398437 23.839843 29.300781v11.007813c0 3.3125 2.683594 6 6 6 3.3125 0 6-2.6875 6-6v-10.976563c15.066407-3.042969 25.378907-17.007813 23.851563-32.304687-1.53125-15.296876-14.398438-26.945313-29.773438-26.949219-9.894531 0-17.917968-8.023438-17.917968-17.917969 0-9.898438 8.023437-17.921875 17.917968-17.921875 9.898438 0 17.921875 8.023437 17.921875 17.921875 0 3.3125 2.683594 6 6 6 3.3125 0 6-2.6875 6-6-.019531-14.238281-10.050781-26.496094-24-29.332031v-8.519531c0-3.3125-2.6875-6-6-6-3.316406 0-6 2.6875-6 6v8.550781c-15.023437 3.117187-25.253906 17.09375-23.6875 32.355469 1.566407 15.261718 14.425781 26.863281 29.765625 26.863281 9.898438 0 17.921875 8.023437 17.921875 17.921875 0 9.898437-8.023437 17.921875-17.921875 17.921875zm0 0" fill="url(#linear1)"/></svg>