<?xml version="1.0" encoding="utf-8"?>
<!-- Generator: Adobe Illustrator 23.0.3, SVG Export Plug-In . SVG Version: 6.00 Build 0)  -->
<svg version="1.1" id="Layer_1" xmlns="http://www.w3.org/2000/svg" xmlns:xlink="http://www.w3.org/1999/xlink" x="0px" y="0px"
	 viewBox="0 0 457 457" style="enable-background:new 0 0 457 457;" xml:space="preserve">
<style type="text/css">
	.st0{fill:url(#SVGID_1_);}
	.st1{fill:url(#SVGID_2_);}
	.st2{fill:url(#SVGID_3_);}
	.st3{fill:url(#SVGID_4_);}
	.st4{fill:url(#SVGID_5_);}
</style>
<linearGradient id="SVGID_1_" gradientUnits="userSpaceOnUse" x1="232.3025" y1="3.0335" x2="328.9109" y2="565.6354">
	<stop  offset="0" style="stop-color:#00EFD1"/>
	<stop  offset="1" style="stop-color:#00ACEA"/>
</linearGradient>
<path class="st0" d="M321.7,232.3h-61.6c-5,0-9.1,4.1-9.1,9.1v205.8c0,5,4.1,9.1,9.1,9.1h61.6c5,0,9.1-4.1,9.1-9.1V241.4
	C330.8,236.4,326.7,232.3,321.7,232.3z M312.6,438.1h-43.4V250.5h43.4V438.1z"/>
<linearGradient id="SVGID_2_" gradientUnits="userSpaceOnUse" x1="116.5973" y1="22.9021" x2="213.2057" y2="585.504">
	<stop  offset="0" style="stop-color:#00EFD1"/>
	<stop  offset="1" style="stop-color:#00ACEA"/>
</linearGradient>
<path class="st1" d="M196.2,158.1h-61.6c-5,0-9.1,4.1-9.1,9.1v280c0,5,4.1,9.1,9.1,9.1h61.6c5,0,9.1-4.1,9.1-9.1v-280
	C205.3,162.2,201.3,158.1,196.2,158.1z M187.1,438.1h-43.4V176.3h43.4V438.1z"/>
<linearGradient id="SVGID_3_" gradientUnits="userSpaceOnUse" x1="-18.1455" y1="46.0397" x2="78.463" y2="608.6417">
	<stop  offset="0" style="stop-color:#00EFD1"/>
	<stop  offset="1" style="stop-color:#00ACEA"/>
</linearGradient>
<path class="st2" d="M70.8,312.7H9.1c-5,0-9.1,4.1-9.1,9.1v125.4c0,5,4.1,9.1,9.1,9.1h61.7c5,0,9.1-4.1,9.1-9.1V321.8
	C79.9,316.8,75.9,312.7,70.8,312.7z M61.7,438.1H18.3V330.9h43.4V438.1z"/>
<linearGradient id="SVGID_4_" gradientUnits="userSpaceOnUse" x1="363.8391" y1="-19.5536" x2="460.4476" y2="543.0483">
	<stop  offset="0" style="stop-color:#00EFD1"/>
	<stop  offset="1" style="stop-color:#00ACEA"/>
</linearGradient>
<path class="st3" d="M447.2,116.6h-61.6c-5,0-9.1,4.1-9.1,9.1v321.4c0,5,4.1,9.1,9.1,9.1h61.6c5,0,9.1-4.1,9.1-9.1V125.8
	C456.3,120.7,452.2,116.6,447.2,116.6z M438.1,438.1h-43.4V134.9h43.4V438.1z"/>
<linearGradient id="SVGID_5_" gradientUnits="userSpaceOnUse" x1="224.4957" y1="4.3741" x2="321.1041" y2="566.976">
	<stop  offset="0" style="stop-color:#00EFD1"/>
	<stop  offset="1" style="stop-color:#00ACEA"/>
</linearGradient>
<path class="st4" d="M40,199.6c2.1,0,4.3-0.7,6-2.3L187,73.2l91.9,80.9c3.4,3,8.6,3,12.1,0L447.8,16c3.8-3.3,4.2-9.1,0.8-12.9
	c-3.3-3.8-9.1-4.2-12.9-0.8L284.9,135.1L193,54.2c-3.4-3-8.6-3-12.1,0l-147,129.4c-3.8,3.3-4.2,9.1-0.8,12.9
	C34.9,198.6,37.4,199.6,40,199.6z"/>
</svg>
