<svg id="facebook-logo" xmlns="http://www.w3.org/2000/svg" width="28.872" height="28.872" viewBox="0 0 28.872 28.872">
  <path id="Facebook__x28_alt_x29_" d="M28.872,4.812A4.987,4.987,0,0,0,24.06,0H4.812A4.987,4.987,0,0,0,0,4.812V24.06a4.987,4.987,0,0,0,4.812,4.812h9.624V17.965H10.907V13.153h3.529V11.278c0-3.233,2.428-6.145,5.413-6.145h3.89V9.945h-3.89c-.426,0-.922.517-.922,1.291v1.917h4.812v4.812H18.927V28.872H24.06a4.987,4.987,0,0,0,4.812-4.812Z" transform="translate(0 0)" fill="#fff"/>
</svg>
