<svg id="github" xmlns="http://www.w3.org/2000/svg" width="29.254" height="28.645" viewBox="0 0 29.254 28.645">
  <g id="Grupo_252" data-name="Grupo 252" transform="translate(0 0)">
    <path id="Caminho_581" data-name="Caminho 581" d="M14.625,5.329A14.694,14.694,0,0,0,10,33.948c.731.135,1-.318,1-.708,0-.349-.013-1.273-.02-2.5-4.068.887-4.927-1.969-4.927-1.969a3.878,3.878,0,0,0-1.624-2.148c-1.329-.911.1-.892.1-.892a3.072,3.072,0,0,1,2.24,1.514,3.109,3.109,0,0,0,4.258,1.22,3.135,3.135,0,0,1,.929-1.964c-3.247-.371-6.663-1.631-6.663-7.257A5.692,5.692,0,0,1,6.8,15.3a5.292,5.292,0,0,1,.143-3.885s1.229-.395,4.022,1.5a13.806,13.806,0,0,1,7.324,0c2.792-1.9,4.019-1.5,4.019-1.5a5.3,5.3,0,0,1,.146,3.885,5.681,5.681,0,0,1,1.5,3.942c0,5.641-3.419,6.882-6.677,7.246a3.513,3.513,0,0,1,.993,2.719c0,1.964-.018,3.547-.018,4.028,0,.393.263.85,1.006.706A14.7,14.7,0,0,0,14.625,5.329Z" transform="translate(0 -5.329)" fill="#fff"/>
  </g>
</svg>
