<?xml version="1.0" encoding="utf-8"?>
<!-- Generator: Adobe Illustrator 23.0.3, SVG Export Plug-In . SVG Version: 6.00 Build 0)  -->
<svg version="1.1" id="Layer_1" xmlns="http://www.w3.org/2000/svg" xmlns:xlink="http://www.w3.org/1999/xlink" x="0px" y="0px"
	 viewBox="0 0 334 158" style="enable-background:new 0 0 334 158;" xml:space="preserve">
<style type="text/css">
	.st0{fill:#FFFFFF;}
	.st1{enable-background:new    ;}
</style>
<g id="Grupo_114" transform="translate(202 -54.302)">
	<path id="Caminho_129" class="st0" d="M-35,137.5c-0.7,0.1-1.3,0.1-2,0c-1.4-0.3-2.4,0.3-3.4,1.1c-1.6,1.3-3.3,2.5-5,3.8
		c-1.8,1.3-2.9,0.8-3.1-1.4c-0.3-2.1-0.5-4.1-0.7-6.1c-0.1-0.8-0.5-1.5-1.2-1.9c-7.9-5.3-12.2-12.6-12.4-22.2
		c-0.3-12.6,8.5-23.5,21.1-26.7c14-3.6,28.7,4.2,33.3,17.7c5.1,14.7-3.5,30.4-18.8,34.7C-29.8,137.3-32.4,137.6-35,137.5z M-35,121
		L-35,121c4.7,0,9.4,0,14.2,0c0.5,0,1,0,1.4-0.1c2.5-0.5,3.6-2.3,4.4-4.4c1.1-3,1.5-6.3,1.1-9.5c-0.1-2.4-0.8-4.8-2.1-6.8
		c-1-1.7-2.8-2.7-4.7-2.6c-9.4,0-18.7,0.1-28,0c-3.7-0.1-5.1,1.9-6.3,4.8c-1,2.5-1.2,5.2-1.2,7.9c0,2.7,0.7,5.3,1.8,7.7
		c0.9,2.1,3,3.3,5.3,3.2C-44.4,120.9-39.7,121-35,121L-35,121z"/>
	<path id="Caminho_130" class="st0" d="M-70.1,109c-0.1-1.3,0-2.6,0.1-4c0.6-3.1,3.1-5.4,6.2-5.8c0.8-0.1,0.8,0.1,0.5,0.8
		c-1.6,4-2.2,8.2-1.8,12.4c0.1,2,0.5,3.9,1,5.8c0.3,0.9,0,1-0.8,0.8c-3.1-0.9-5.3-3.8-5.3-7C-70.1,111.1-70.1,110.2-70.1,109z"/>
	<path id="Caminho_131" class="st0" d="M-7,99.3c4.2,0.1,7.1,3.1,7.2,7.1c0,2,0,4,0,5.9c-0.1,3.1-2.3,5.9-5.4,6.7
		c-0.4,0.1-1,0.4-0.7-0.5C-4.1,112.2-4.5,105.3-7,99.3z"/>
	<path id="Caminho_132" class="st0" d="M-20.6,109.1c0,3.3-2.6,5.6-5.3,4.9c-2.1-0.5-3.4-2.7-3.3-5.3c0.1-2.2,1.8-4,4-4.3
		c1.8-0.2,3.8,1.4,4.4,3.4C-20.8,108.3-20.7,108.8-20.6,109.1z"/>
	<path id="Caminho_133" class="st0" d="M-39.2,109.1c0,3.3-2.6,5.6-5.3,4.9c-2.1-0.5-3.4-2.7-3.3-5.3c0.1-2.2,1.8-4,4-4.3
		c1.8-0.2,3.8,1.4,4.4,3.4C-39.3,108.3-39.2,108.8-39.2,109.1z"/>
</g>
<g class="st1">
	<path class="st0" d="M19,124.4c0.3,0,0.5,0.1,0.7,0.3l1.9,2c-1,1.3-2.3,2.3-3.8,2.9c-1.5,0.7-3.3,1-5.4,1c-1.9,0-3.6-0.3-5.1-1
		c-1.5-0.6-2.8-1.5-3.9-2.7c-1.1-1.2-1.9-2.5-2.5-4.1S0,119.5,0,117.6c0-1.9,0.3-3.7,0.9-5.3c0.6-1.6,1.5-3,2.6-4.1
		c1.1-1.2,2.4-2,4-2.7c1.5-0.6,3.2-1,5.1-1c1.9,0,3.5,0.3,4.9,0.9c1.4,0.6,2.7,1.4,3.7,2.4l-1.6,2.2c-0.1,0.1-0.2,0.3-0.4,0.4
		c-0.1,0.1-0.4,0.2-0.6,0.2c-0.2,0-0.4,0-0.5-0.2c-0.2-0.1-0.4-0.2-0.6-0.4c-0.2-0.1-0.5-0.3-0.8-0.5c-0.3-0.2-0.6-0.3-1-0.5
		c-0.4-0.1-0.8-0.3-1.3-0.4c-0.5-0.1-1.1-0.1-1.8-0.1c-1.1,0-2.2,0.2-3.1,0.6c-0.9,0.4-1.8,1-2.4,1.8c-0.7,0.8-1.2,1.7-1.6,2.8
		c-0.4,1.1-0.6,2.4-0.6,3.8c0,1.4,0.2,2.7,0.6,3.8c0.4,1.1,1,2.1,1.6,2.8c0.7,0.8,1.5,1.3,2.5,1.8c0.9,0.4,2,0.6,3,0.6
		c0.6,0,1.2,0,1.8-0.1c0.5-0.1,1-0.2,1.4-0.3c0.4-0.2,0.9-0.3,1.3-0.6c0.4-0.2,0.8-0.5,1.2-0.9c0.1-0.1,0.2-0.2,0.4-0.3
		C18.7,124.4,18.9,124.4,19,124.4z"/>
	<path class="st0" d="M46.3,104.9v25.5h-4.8v-11.1h-12v11.1h-4.8v-25.5h4.8v11h12v-11H46.3z"/>
	<path class="st0" d="M73.9,130.4h-3.7c-0.4,0-0.7-0.1-1-0.3c-0.3-0.2-0.5-0.5-0.6-0.8l-1.9-5.2H56.1l-1.9,5.2
		c-0.1,0.3-0.3,0.5-0.5,0.7c-0.3,0.2-0.6,0.3-1,0.3H49l10-25.5h4.8L73.9,130.4z M65.5,120.7l-3.1-8.5c-0.2-0.4-0.3-0.8-0.5-1.3
		c-0.2-0.5-0.3-1.1-0.5-1.7c-0.2,0.6-0.3,1.2-0.5,1.7c-0.2,0.5-0.3,1-0.5,1.4l-3.1,8.4H65.5z"/>
	<path class="st0" d="M91.8,108.8h-7.7v21.6h-4.7v-21.6h-7.7v-3.9h20.1V108.8z"/>
	<path class="st0" d="M104,104.9c1.7,0,3.1,0.2,4.3,0.5c1.2,0.3,2.2,0.8,2.9,1.4c0.8,0.6,1.3,1.3,1.7,2.1c0.4,0.8,0.5,1.8,0.5,2.8
		c0,0.6-0.1,1.2-0.3,1.7c-0.2,0.5-0.4,1.1-0.8,1.5c-0.4,0.5-0.8,0.9-1.4,1.3c-0.6,0.4-1.2,0.7-2,1c3.5,0.8,5.3,2.7,5.3,5.7
		c0,1.1-0.2,2.1-0.6,3c-0.4,0.9-1,1.7-1.8,2.4c-0.8,0.7-1.8,1.2-2.9,1.6c-1.2,0.4-2.5,0.6-4,0.6h-9.6v-25.5H104z M99.9,108.5v7.4
		h3.8c1.6,0,2.8-0.3,3.7-0.9c0.8-0.6,1.2-1.5,1.2-2.8c0-1.3-0.4-2.3-1.1-2.8c-0.8-0.6-1.9-0.8-3.5-0.8H99.9z M104.7,126.7
		c0.9,0,1.6-0.1,2.2-0.3c0.6-0.2,1.1-0.5,1.4-0.8c0.4-0.4,0.6-0.8,0.8-1.2c0.2-0.5,0.2-1,0.2-1.5c0-0.6-0.1-1-0.3-1.5
		c-0.2-0.4-0.5-0.8-0.8-1.1c-0.4-0.3-0.9-0.5-1.5-0.7c-0.6-0.2-1.3-0.2-2.1-0.2h-4.8v7.5H104.7z"/>
	<path class="st0" d="M142.7,117.6c0,1.9-0.3,3.6-0.9,5.2c-0.6,1.6-1.5,3-2.6,4.1c-1.1,1.2-2.5,2.1-4.1,2.7c-1.6,0.7-3.4,1-5.3,1
		c-1.9,0-3.7-0.3-5.3-1c-1.6-0.7-2.9-1.6-4.1-2.7c-1.1-1.2-2-2.5-2.6-4.1c-0.6-1.6-0.9-3.3-0.9-5.2c0-1.9,0.3-3.6,0.9-5.2
		c0.6-1.6,1.5-3,2.6-4.1c1.1-1.2,2.5-2.1,4.1-2.7c1.6-0.7,3.3-1,5.3-1c1.3,0,2.5,0.2,3.7,0.4c1.1,0.3,2.2,0.7,3.1,1.3s1.8,1.2,2.6,2
		c0.8,0.8,1.4,1.7,1.9,2.6c0.5,1,0.9,2,1.2,3.1C142.6,115.2,142.7,116.4,142.7,117.6z M137.9,117.6c0-1.4-0.2-2.7-0.6-3.8
		c-0.4-1.1-0.9-2.1-1.6-2.8c-0.7-0.8-1.5-1.4-2.5-1.8c-1-0.4-2.1-0.6-3.4-0.6c-1.2,0-2.4,0.2-3.4,0.6s-1.8,1-2.5,1.8
		c-0.7,0.8-1.2,1.7-1.6,2.8c-0.4,1.1-0.6,2.4-0.6,3.8c0,1.4,0.2,2.7,0.6,3.8c0.4,1.1,0.9,2.1,1.6,2.8c0.7,0.8,1.5,1.4,2.5,1.8
		c1,0.4,2.1,0.6,3.4,0.6c1.2,0,2.4-0.2,3.4-0.6c1-0.4,1.8-1,2.5-1.8c0.7-0.8,1.2-1.7,1.6-2.8S137.9,119,137.9,117.6z"/>
	<path class="st0" d="M163.9,108.8h-7.7v21.6h-4.7v-21.6h-7.7v-3.9h20.1V108.8z"/>
</g>
<g class="st1">
	<path class="st0" d="M180.2,108.5c-0.1,0.2-0.3,0.3-0.5,0.3c-0.2,0-0.3-0.1-0.6-0.3c-0.2-0.2-0.6-0.5-1-0.7
		c-0.4-0.3-0.9-0.5-1.5-0.7c-0.6-0.2-1.4-0.3-2.3-0.3c-0.9,0-1.7,0.1-2.4,0.4c-0.7,0.3-1.3,0.6-1.7,1.1c-0.5,0.4-0.8,1-1.1,1.6
		c-0.2,0.6-0.4,1.2-0.4,1.9c0,0.8,0.2,1.5,0.5,2.1c0.4,0.6,0.8,1,1.4,1.4c0.6,0.4,1.3,0.7,2,1c0.7,0.3,1.5,0.5,2.3,0.8
		c0.8,0.3,1.6,0.5,2.3,0.9c0.7,0.3,1.4,0.7,2,1.2c0.6,0.5,1.1,1,1.4,1.7c0.4,0.7,0.5,1.5,0.5,2.6c0,1-0.2,2-0.5,3
		c-0.4,0.9-0.9,1.7-1.6,2.4c-0.7,0.7-1.5,1.2-2.5,1.6c-1,0.4-2.1,0.6-3.4,0.6c-1.6,0-3.1-0.3-4.3-0.9c-1.2-0.6-2.2-1.4-3.1-2.4
		l0.5-0.8c0.1-0.2,0.3-0.3,0.5-0.3c0.1,0,0.2,0.1,0.4,0.2c0.2,0.1,0.4,0.3,0.6,0.5c0.2,0.2,0.5,0.4,0.8,0.7c0.3,0.2,0.7,0.5,1.1,0.7
		c0.4,0.2,0.9,0.4,1.5,0.5c0.6,0.1,1.2,0.2,1.9,0.2c1,0,1.9-0.2,2.6-0.5c0.8-0.3,1.4-0.7,2-1.2c0.5-0.5,0.9-1.1,1.2-1.8
		c0.3-0.7,0.4-1.5,0.4-2.3c0-0.9-0.2-1.6-0.5-2.2s-0.8-1-1.4-1.4c-0.6-0.4-1.3-0.7-2-1c-0.7-0.3-1.5-0.5-2.3-0.8
		c-0.8-0.2-1.6-0.5-2.3-0.8c-0.7-0.3-1.4-0.7-2-1.2c-0.6-0.5-1.1-1.1-1.4-1.8c-0.4-0.7-0.5-1.6-0.5-2.7c0-0.8,0.2-1.6,0.5-2.4
		s0.8-1.5,1.4-2.1s1.4-1.1,2.3-1.4c0.9-0.4,1.9-0.5,3.1-0.5c1.3,0,2.5,0.2,3.5,0.6c1,0.4,2,1,2.8,1.9L180.2,108.5z"/>
	<path class="st0" d="M209.1,117.9c0,1.9-0.3,3.7-0.9,5.2c-0.6,1.6-1.4,2.9-2.4,4c-1,1.1-2.3,2-3.8,2.6c-1.5,0.6-3.1,0.9-4.8,0.9
		c-1.8,0-3.4-0.3-4.8-0.9c-1.5-0.6-2.7-1.5-3.8-2.6c-1-1.1-1.9-2.5-2.4-4c-0.6-1.6-0.9-3.3-0.9-5.2c0-1.9,0.3-3.7,0.9-5.2
		c0.6-1.6,1.4-2.9,2.4-4c1-1.1,2.3-2,3.8-2.6c1.5-0.6,3.1-0.9,4.8-0.9c1.8,0,3.4,0.3,4.8,0.9c1.5,0.6,2.7,1.5,3.8,2.6
		c1,1.1,1.9,2.5,2.4,4C208.8,114.2,209.1,116,209.1,117.9z M207.2,117.9c0-1.7-0.2-3.3-0.7-4.7c-0.5-1.4-1.2-2.6-2-3.5
		c-0.9-1-1.9-1.7-3.2-2.2c-1.2-0.5-2.6-0.8-4.1-0.8c-1.5,0-2.8,0.3-4.1,0.8c-1.2,0.5-2.3,1.2-3.2,2.2c-0.9,1-1.6,2.1-2.1,3.5
		c-0.5,1.4-0.7,3-0.7,4.7c0,1.8,0.2,3.3,0.7,4.7c0.5,1.4,1.2,2.6,2.1,3.5c0.9,1,1.9,1.7,3.2,2.2c1.2,0.5,2.6,0.8,4.1,0.8
		c1.5,0,2.9-0.3,4.1-0.8c1.2-0.5,2.3-1.2,3.2-2.2c0.9-1,1.6-2.1,2-3.5C207,121.2,207.2,119.6,207.2,117.9z"/>
	<path class="st0" d="M228.5,128.8v1.5h-13.6v-25h1.8v23.4H228.5z"/>
	<path class="st0" d="M240.7,129.1c1.2,0,2.3-0.2,3.2-0.6c0.9-0.4,1.7-1,2.4-1.7c0.7-0.7,1.2-1.6,1.5-2.6c0.3-1,0.5-2.1,0.5-3.3
		v-15.4h1.8v15.4c0,1.4-0.2,2.7-0.7,3.9c-0.4,1.2-1.1,2.2-1.9,3.1c-0.8,0.9-1.8,1.6-3,2.1c-1.2,0.5-2.5,0.8-3.9,0.8
		c-1.5,0-2.8-0.3-3.9-0.8c-1.2-0.5-2.2-1.2-3-2.1c-0.8-0.9-1.4-1.9-1.9-3.1c-0.4-1.2-0.7-2.5-0.7-3.9v-15.4h1.8v15.4
		c0,1.2,0.2,2.2,0.5,3.3c0.3,1,0.8,1.9,1.5,2.6c0.7,0.7,1.5,1.3,2.4,1.7S239.5,129.1,240.7,129.1z"/>
	<path class="st0" d="M273.4,107h-8.8v23.4h-1.8V107H254v-1.5h19.4V107z"/>
	<path class="st0" d="M279.4,130.4h-1.8v-25h1.8V130.4z"/>
	<path class="st0" d="M309,117.9c0,1.9-0.3,3.7-0.9,5.2c-0.6,1.6-1.4,2.9-2.4,4c-1,1.1-2.3,2-3.8,2.6c-1.5,0.6-3.1,0.9-4.8,0.9
		c-1.8,0-3.4-0.3-4.8-0.9c-1.5-0.6-2.7-1.5-3.8-2.6c-1-1.1-1.9-2.5-2.4-4c-0.6-1.6-0.9-3.3-0.9-5.2c0-1.9,0.3-3.7,0.9-5.2
		c0.6-1.6,1.4-2.9,2.4-4c1-1.1,2.3-2,3.8-2.6c1.5-0.6,3.1-0.9,4.8-0.9c1.8,0,3.4,0.3,4.8,0.9c1.5,0.6,2.7,1.5,3.8,2.6
		c1,1.1,1.9,2.5,2.4,4C308.7,114.2,309,116,309,117.9z M307.1,117.9c0-1.7-0.2-3.3-0.7-4.7c-0.5-1.4-1.2-2.6-2-3.5
		c-0.9-1-1.9-1.7-3.2-2.2s-2.6-0.8-4.1-0.8c-1.5,0-2.8,0.3-4.1,0.8s-2.3,1.2-3.2,2.2c-0.9,1-1.6,2.1-2.1,3.5c-0.5,1.4-0.7,3-0.7,4.7
		c0,1.8,0.2,3.3,0.7,4.7c0.5,1.4,1.2,2.6,2.1,3.5c0.9,1,1.9,1.7,3.2,2.2c1.2,0.5,2.6,0.8,4.1,0.8c1.5,0,2.9-0.3,4.1-0.8
		c1.2-0.5,2.3-1.2,3.2-2.2c0.9-1,1.6-2.1,2-3.5C306.9,121.2,307.1,119.6,307.1,117.9z"/>
	<path class="st0" d="M334,105.4v25h-0.8c-0.2,0-0.3,0-0.4-0.1c-0.1-0.1-0.2-0.1-0.3-0.3l-16.2-21.7c0,0.4,0.1,0.7,0.1,1v21h-1.6
		v-25h0.9c0.2,0,0.3,0,0.4,0.1c0.1,0,0.2,0.1,0.3,0.3l16.2,21.6c0-0.4-0.1-0.7-0.1-1v-20.9H334z"/>
</g>
</svg>
