<svg xmlns="http://www.w3.org/2000/svg" width="29.419" height="29.42" viewBox="0 0 29.419 29.42">
  <g id="Grupo_256" data-name="Grupo 256" transform="translate(132.651 -8.159)">
    <path id="Caminho_584" data-name="Caminho 584" d="M-117.941,10.809c3.928,0,4.393.015,5.944.086a8.138,8.138,0,0,1,2.731.506,4.557,4.557,0,0,1,1.691,1.1,4.557,4.557,0,0,1,1.1,1.691,8.139,8.139,0,0,1,.507,2.731c.071,1.551.086,2.016.086,5.944s-.015,4.393-.086,5.944a8.139,8.139,0,0,1-.507,2.731,4.558,4.558,0,0,1-1.1,1.691,4.557,4.557,0,0,1-1.691,1.1,8.138,8.138,0,0,1-2.731.506c-1.551.071-2.016.086-5.944.086s-4.393-.015-5.944-.086a8.138,8.138,0,0,1-2.731-.506,4.557,4.557,0,0,1-1.691-1.1,4.558,4.558,0,0,1-1.1-1.691,8.139,8.139,0,0,1-.506-2.731c-.071-1.551-.086-2.016-.086-5.944s.015-4.393.086-5.944a8.139,8.139,0,0,1,.506-2.731,4.558,4.558,0,0,1,1.1-1.691,4.557,4.557,0,0,1,1.691-1.1,8.138,8.138,0,0,1,2.731-.506c1.551-.071,2.016-.086,5.944-.086m0-2.65c-3.995,0-4.5.017-6.065.089a10.8,10.8,0,0,0-3.571.684,7.21,7.21,0,0,0-2.605,1.7,7.21,7.21,0,0,0-1.7,2.605,10.8,10.8,0,0,0-.684,3.571c-.072,1.569-.089,2.07-.089,6.065s.017,4.5.089,6.065a10.8,10.8,0,0,0,.684,3.571,7.21,7.21,0,0,0,1.7,2.605,7.209,7.209,0,0,0,2.605,1.7,10.8,10.8,0,0,0,3.571.684c1.569.072,2.07.089,6.065.089s4.5-.017,6.065-.089a10.8,10.8,0,0,0,3.571-.684,7.21,7.21,0,0,0,2.605-1.7A7.211,7.211,0,0,0-104,32.5a10.8,10.8,0,0,0,.684-3.571c.072-1.569.088-2.07.088-6.065s-.017-4.5-.088-6.065A10.8,10.8,0,0,0-104,13.233a7.211,7.211,0,0,0-1.7-2.605,7.211,7.211,0,0,0-2.605-1.7,10.8,10.8,0,0,0-3.571-.684c-1.569-.072-2.07-.089-6.065-.089Z" fill="#fff"/>
    <path id="Caminho_585" data-name="Caminho 585" d="M-2.541,130.715a7.554,7.554,0,0,0-7.554,7.554,7.554,7.554,0,0,0,7.554,7.554,7.554,7.554,0,0,0,7.554-7.554A7.554,7.554,0,0,0-2.541,130.715Zm0,12.457a4.9,4.9,0,0,1-4.9-4.9,4.9,4.9,0,0,1,4.9-4.9,4.9,4.9,0,0,1,4.9,4.9A4.9,4.9,0,0,1-2.541,143.172Z" transform="translate(-115.4 -115.4)" fill="#fff"/>
    <circle id="Elipse_3" data-name="Elipse 3" cx="1.765" cy="1.765" r="1.765" transform="translate(-111.854 13.251)" fill="#fff"/>
  </g>
</svg>
