<?xml version="1.0" encoding="utf-8"?>
<!-- Generator: Adobe Illustrator 23.0.3, SVG Export Plug-In . SVG Version: 6.00 Build 0)  -->
<svg version="1.1" id="Layer_1" xmlns="http://www.w3.org/2000/svg" xmlns:xlink="http://www.w3.org/1999/xlink" x="0px" y="0px"
	 viewBox="0 0 279.4 49" style="enable-background:new 0 0 279.4 49;" xml:space="preserve">
<style type="text/css">
	.st0{enable-background:new    ;}
	.st1{fill:#FFFFFF;}
</style>
<g class="st0">
	<path class="st1" d="M20.4,30.5c0.2,0,0.4,0.1,0.6,0.2l1.5,1.6c-0.8,1-1.9,1.8-3.1,2.4c-1.2,0.6-2.7,0.8-4.4,0.8
		c-1.5,0-2.9-0.3-4.1-0.8c-1.2-0.5-2.3-1.3-3.1-2.2c-0.9-0.9-1.5-2.1-2-3.4C5.2,28,4.9,26.6,4.9,25c0-1.6,0.2-3,0.7-4.3
		c0.5-1.3,1.2-2.4,2.1-3.3c0.9-0.9,2-1.7,3.2-2.2c1.3-0.5,2.6-0.8,4.2-0.8c1.5,0,2.8,0.2,4,0.7c1.2,0.5,2.2,1.1,3,1.9l-1.3,1.8
		c-0.1,0.1-0.2,0.2-0.3,0.3c-0.1,0.1-0.3,0.1-0.5,0.1c-0.1,0-0.3,0-0.4-0.1c-0.2-0.1-0.3-0.2-0.5-0.3c-0.2-0.1-0.4-0.3-0.6-0.4
		c-0.2-0.1-0.5-0.3-0.8-0.4s-0.7-0.2-1.1-0.3c-0.4-0.1-0.9-0.1-1.4-0.1c-0.9,0-1.8,0.2-2.5,0.5c-0.8,0.3-1.4,0.8-2,1.4
		c-0.6,0.6-1,1.4-1.3,2.3C9,22.8,8.9,23.9,8.9,25c0,1.2,0.2,2.2,0.5,3.1c0.3,0.9,0.8,1.7,1.3,2.3c0.6,0.6,1.2,1.1,2,1.4
		c0.8,0.3,1.6,0.5,2.5,0.5c0.5,0,1,0,1.4-0.1c0.4-0.1,0.8-0.1,1.2-0.3c0.4-0.1,0.7-0.3,1-0.5c0.3-0.2,0.6-0.4,1-0.7
		c0.1-0.1,0.2-0.2,0.3-0.2C20.1,30.5,20.2,30.5,20.4,30.5z"/>
	<path class="st1" d="M42.5,14.7v20.7h-3.9v-9.1H29v9.1h-3.9V14.7H29v8.9h9.7v-8.9H42.5z"/>
	<path class="st1" d="M64.9,35.4h-3c-0.3,0-0.6-0.1-0.8-0.3c-0.2-0.2-0.4-0.4-0.5-0.6l-1.5-4.2h-8.6L49,34.5
		c-0.1,0.2-0.2,0.4-0.4,0.6c-0.2,0.2-0.5,0.3-0.8,0.3h-3l8.1-20.7h3.9L64.9,35.4z M58.1,27.5l-2.5-6.9c-0.1-0.3-0.3-0.7-0.4-1.1
		c-0.1-0.4-0.3-0.9-0.4-1.4c-0.1,0.5-0.3,0.9-0.4,1.4c-0.1,0.4-0.3,0.8-0.4,1.1l-2.5,6.9H58.1z"/>
	<path class="st1" d="M79.5,17.8h-6.2v17.5h-3.9V17.8h-6.2v-3.2h16.3V17.8z"/>
	<path class="st1" d="M89.4,14.7c1.4,0,2.5,0.1,3.5,0.4c1,0.3,1.8,0.6,2.4,1.1c0.6,0.5,1.1,1.1,1.4,1.7c0.3,0.7,0.4,1.4,0.4,2.3
		c0,0.5-0.1,1-0.2,1.4c-0.1,0.4-0.4,0.9-0.7,1.2c-0.3,0.4-0.7,0.7-1.1,1.1c-0.5,0.3-1,0.6-1.7,0.8c2.8,0.6,4.3,2.2,4.3,4.6
		c0,0.9-0.2,1.7-0.5,2.4c-0.3,0.7-0.8,1.4-1.5,1.9c-0.6,0.5-1.4,1-2.4,1.3c-0.9,0.3-2,0.5-3.2,0.5h-7.8V14.7H89.4z M86.1,17.6v6h3.1
		c1.3,0,2.3-0.2,3-0.7c0.7-0.5,1-1.2,1-2.3c0-1.1-0.3-1.8-0.9-2.3c-0.6-0.5-1.6-0.7-2.9-0.7H86.1z M90,32.4c0.7,0,1.3-0.1,1.8-0.3
		c0.5-0.2,0.9-0.4,1.2-0.7c0.3-0.3,0.5-0.6,0.6-1c0.1-0.4,0.2-0.8,0.2-1.2c0-0.4-0.1-0.9-0.2-1.2c-0.1-0.4-0.4-0.7-0.7-0.9
		c-0.3-0.3-0.7-0.4-1.2-0.6c-0.5-0.1-1.1-0.2-1.7-0.2h-3.9v6.1H90z"/>
	<path class="st1" d="M120.8,25c0,1.5-0.3,2.9-0.8,4.2c-0.5,1.3-1.2,2.4-2.1,3.4c-0.9,0.9-2,1.7-3.3,2.2c-1.3,0.5-2.7,0.8-4.3,0.8
		c-1.6,0-3-0.3-4.3-0.8c-1.3-0.5-2.4-1.3-3.3-2.2c-0.9-0.9-1.6-2.1-2.1-3.4c-0.5-1.3-0.8-2.7-0.8-4.2c0-1.5,0.3-2.9,0.8-4.2
		c0.5-1.3,1.2-2.4,2.1-3.4c0.9-0.9,2-1.7,3.3-2.2c1.3-0.5,2.7-0.8,4.3-0.8c1.1,0,2,0.1,3,0.4c0.9,0.2,1.8,0.6,2.5,1
		c0.8,0.4,1.5,1,2.1,1.6c0.6,0.6,1.1,1.3,1.6,2.1c0.4,0.8,0.8,1.6,1,2.5C120.7,23,120.8,24,120.8,25z M116.9,25
		c0-1.1-0.2-2.2-0.5-3.1c-0.3-0.9-0.7-1.7-1.3-2.3c-0.6-0.6-1.2-1.1-2.1-1.4c-0.8-0.3-1.7-0.5-2.7-0.5c-1,0-1.9,0.2-2.7,0.5
		c-0.8,0.3-1.5,0.8-2.1,1.4c-0.6,0.6-1,1.4-1.3,2.3c-0.3,0.9-0.5,1.9-0.5,3.1c0,1.1,0.2,2.2,0.5,3.1s0.7,1.7,1.3,2.3
		c0.6,0.6,1.3,1.1,2.1,1.4c0.8,0.3,1.7,0.5,2.7,0.5c1,0,1.9-0.2,2.7-0.5c0.8-0.3,1.5-0.8,2.1-1.4c0.6-0.6,1-1.4,1.3-2.3
		C116.7,27.2,116.9,26.2,116.9,25z"/>
	<path class="st1" d="M138,17.8h-6.2v17.5h-3.9V17.8h-6.2v-3.2H138V17.8z"/>
</g>
<g class="st0">
	<path class="st1" d="M151.2,17.6c-0.1,0.2-0.2,0.2-0.4,0.2c-0.1,0-0.3-0.1-0.5-0.3c-0.2-0.2-0.5-0.4-0.8-0.6s-0.8-0.4-1.3-0.6
		c-0.5-0.2-1.1-0.3-1.9-0.3s-1.4,0.1-1.9,0.3c-0.6,0.2-1,0.5-1.4,0.9c-0.4,0.4-0.7,0.8-0.9,1.3c-0.2,0.5-0.3,1-0.3,1.5
		c0,0.7,0.1,1.3,0.4,1.7c0.3,0.4,0.7,0.8,1.2,1.1s1,0.6,1.6,0.8c0.6,0.2,1.2,0.4,1.9,0.6c0.6,0.2,1.3,0.4,1.9,0.7
		c0.6,0.3,1.1,0.6,1.6,1c0.5,0.4,0.9,0.9,1.2,1.4c0.3,0.6,0.4,1.3,0.4,2.1c0,0.8-0.1,1.6-0.4,2.4c-0.3,0.7-0.7,1.4-1.3,2
		c-0.6,0.6-1.2,1-2,1.3c-0.8,0.3-1.7,0.5-2.8,0.5c-1.3,0-2.5-0.2-3.5-0.7c-1-0.5-1.8-1.1-2.5-1.9l0.4-0.6c0.1-0.1,0.2-0.2,0.4-0.2
		c0.1,0,0.2,0.1,0.3,0.2c0.1,0.1,0.3,0.3,0.5,0.4c0.2,0.2,0.4,0.3,0.7,0.5c0.3,0.2,0.6,0.4,0.9,0.5c0.4,0.2,0.8,0.3,1.2,0.4
		c0.5,0.1,1,0.2,1.6,0.2c0.8,0,1.5-0.1,2.1-0.4c0.6-0.2,1.2-0.6,1.6-1c0.4-0.4,0.8-0.9,1-1.5c0.2-0.6,0.3-1.2,0.3-1.9
		c0-0.7-0.1-1.3-0.4-1.8c-0.3-0.5-0.7-0.9-1.2-1.2c-0.5-0.3-1-0.6-1.6-0.8c-0.6-0.2-1.2-0.4-1.9-0.6c-0.6-0.2-1.3-0.4-1.9-0.7
		c-0.6-0.2-1.1-0.6-1.6-1c-0.5-0.4-0.9-0.9-1.2-1.4c-0.3-0.6-0.4-1.3-0.4-2.2c0-0.7,0.1-1.3,0.4-2c0.3-0.6,0.6-1.2,1.1-1.7
		c0.5-0.5,1.1-0.9,1.8-1.2c0.7-0.3,1.6-0.4,2.5-0.4c1.1,0,2,0.2,2.8,0.5c0.8,0.3,1.6,0.8,2.3,1.5L151.2,17.6z"/>
	<path class="st1" d="M174.7,25.2c0,1.6-0.2,3-0.7,4.3c-0.5,1.3-1.1,2.4-2,3.3c-0.8,0.9-1.9,1.6-3.1,2.1c-1.2,0.5-2.5,0.7-3.9,0.7
		c-1.4,0-2.7-0.2-3.9-0.7c-1.2-0.5-2.2-1.2-3.1-2.1c-0.8-0.9-1.5-2-2-3.3c-0.5-1.3-0.7-2.7-0.7-4.3c0-1.6,0.2-3,0.7-4.2
		c0.5-1.3,1.1-2.4,2-3.3c0.8-0.9,1.9-1.6,3.1-2.1c1.2-0.5,2.5-0.7,3.9-0.7c1.4,0,2.7,0.2,3.9,0.7c1.2,0.5,2.2,1.2,3.1,2.1
		s1.5,2,2,3.3C174.5,22.3,174.7,23.7,174.7,25.2z M173.2,25.2c0-1.4-0.2-2.7-0.6-3.8c-0.4-1.1-0.9-2.1-1.7-2.9
		c-0.7-0.8-1.6-1.4-2.6-1.8s-2.1-0.6-3.3-0.6c-1.2,0-2.3,0.2-3.3,0.6c-1,0.4-1.9,1-2.6,1.8c-0.7,0.8-1.3,1.7-1.7,2.9
		c-0.4,1.1-0.6,2.4-0.6,3.8c0,1.4,0.2,2.7,0.6,3.8c0.4,1.1,1,2.1,1.7,2.9c0.7,0.8,1.6,1.4,2.6,1.8c1,0.4,2.1,0.6,3.3,0.6
		c1.2,0,2.3-0.2,3.3-0.6c1-0.4,1.9-1,2.6-1.8c0.7-0.8,1.3-1.7,1.7-2.9C173,27.9,173.2,26.7,173.2,25.2z"/>
	<path class="st1" d="M190.5,34.1v1.2h-11.1V15.1h1.5v19H190.5z"/>
	<path class="st1" d="M200.4,34.3c1,0,1.8-0.2,2.6-0.5c0.8-0.3,1.4-0.8,2-1.4c0.5-0.6,0.9-1.3,1.2-2.1c0.3-0.8,0.4-1.7,0.4-2.6V15.1
		h1.5v12.5c0,1.1-0.2,2.2-0.5,3.1c-0.4,1-0.9,1.8-1.5,2.5c-0.7,0.7-1.5,1.3-2.4,1.7c-1,0.4-2,0.6-3.2,0.6c-1.2,0-2.3-0.2-3.2-0.6
		c-0.9-0.4-1.8-1-2.4-1.7c-0.7-0.7-1.2-1.6-1.5-2.5c-0.4-1-0.5-2-0.5-3.1V15.1h1.5v12.5c0,0.9,0.1,1.8,0.4,2.6
		c0.3,0.8,0.7,1.5,1.2,2.1c0.5,0.6,1.2,1.1,1.9,1.4C198.5,34.2,199.4,34.3,200.4,34.3z"/>
	<path class="st1" d="M227,16.3h-7.1v19h-1.5v-19h-7.2v-1.2H227V16.3z"/>
	<path class="st1" d="M231.9,35.4h-1.5V15.1h1.5V35.4z"/>
	<path class="st1" d="M255.8,25.2c0,1.6-0.2,3-0.7,4.3c-0.5,1.3-1.1,2.4-2,3.3c-0.8,0.9-1.9,1.6-3.1,2.1c-1.2,0.5-2.5,0.7-3.9,0.7
		s-2.7-0.2-3.9-0.7c-1.2-0.5-2.2-1.2-3.1-2.1c-0.9-0.9-1.5-2-2-3.3c-0.5-1.3-0.7-2.7-0.7-4.3c0-1.6,0.2-3,0.7-4.2
		c0.5-1.3,1.1-2.4,2-3.3c0.8-0.9,1.9-1.6,3.1-2.1c1.2-0.5,2.5-0.7,3.9-0.7s2.7,0.2,3.9,0.7c1.2,0.5,2.2,1.2,3.1,2.1
		c0.9,0.9,1.5,2,2,3.3C255.6,22.3,255.8,23.7,255.8,25.2z M254.3,25.2c0-1.4-0.2-2.7-0.6-3.8c-0.4-1.1-0.9-2.1-1.7-2.9
		c-0.7-0.8-1.6-1.4-2.6-1.8c-1-0.4-2.1-0.6-3.3-0.6c-1.2,0-2.3,0.2-3.3,0.6s-1.9,1-2.6,1.8c-0.7,0.8-1.3,1.7-1.7,2.9
		c-0.4,1.1-0.6,2.4-0.6,3.8c0,1.4,0.2,2.7,0.6,3.8c0.4,1.1,1,2.1,1.7,2.9c0.7,0.8,1.6,1.4,2.6,1.8c1,0.4,2.1,0.6,3.3,0.6
		c1.2,0,2.3-0.2,3.3-0.6c1-0.4,1.9-1,2.6-1.8c0.7-0.8,1.3-1.7,1.7-2.9C254.1,27.9,254.3,26.7,254.3,25.2z"/>
	<path class="st1" d="M276.2,15.1v20.3h-0.7c-0.1,0-0.2,0-0.3-0.1c-0.1,0-0.2-0.1-0.2-0.2l-13.2-17.6c0,0.3,0,0.6,0,0.8v17.1h-1.3
		V15.1h0.7c0.1,0,0.2,0,0.3,0.1c0.1,0,0.2,0.1,0.2,0.2l13.1,17.5c0-0.3,0-0.6,0-0.8v-17H276.2z"/>
</g>
</svg>
